# xmcd CD database file
#
# Track frame offsets:
#	150
#	14291
#	27598
#	41200
#	55330
#	69182
#	82569
#	93660
#	106191
#	119676
#	132959
#	144960
#	157249
#	167919
#	180545
#	191248
#	201952
#	213655
#	226851
#	238365
#	248856
#	259771
#	272369
#	287305
#	302768
#
# Disc length: 4206 seconds
#
# Revision: 0
# Processed by: cddbd v1.5.2PL0 Copyright (c) Steve Scherf et al.
# Submitted via: CDex 1.51
#
DISCID=6a106c19
DTITLE=Brown,Charles - The Cool Blues Of  1945 - 1961  CD 2
DYEAR=2012
DGENRE=Blues
TTITLE0=Black Night
TTITLE1=I`ll Always Be In Love With You ( 1951 Version )
TTITLE2=Seven Long Days
TTITLE3=Don`t Fool With My Heart
TTITLE4=Hard Times
TTITLE5=Still Water
TTITLE6=Baby Do You Know The Game
TTITLE7=Evening Shadows
TTITLE8=I Lost Everything
TTITLE9=Lonesome Feeling
TTITLE10=Cryin' And Driftin' Blues
TTITLE11=Cryin' Mercy
TTITLE12=Honey Sipper
TTITLE13=Fool`s Paradise
TTITLE14=Hot Lips And Seven Kisses
TTITLE15=Please Don`t Drive Me Away
TTITLE16=I`ll Always Be In Love With You ( 1956 Version )
TTITLE17=Merry Christmas Baby ( 1956 Version )
TTITLE18=I Wanna Go Home
TTITLE19=Educated Fool
TTITLE20=Love`s Like A River
TTITLE21=Sing My Blues Tonight
TTITLE22=Please Come Home For Christmas
TTITLE23=Merry Christmas Baby ( 1961 Version )
TTITLE24=Please Come Home For Christmas
EXTD=YEAR: 2012
EXTT0=
EXTT1=
EXTT2=
EXTT3=
EXTT4=
EXTT5=
EXTT6=
EXTT7=
EXTT8=
EXTT9=
EXTT10=
EXTT11=
EXTT12=
EXTT13=
EXTT14=
EXTT15=
EXTT16=
EXTT17=
EXTT18=
EXTT19=
EXTT20=
EXTT21=
EXTT22=
EXTT23=
EXTT24=
PLAYORDER=
